#!OML:ASF I:\salsa\salsa 7_09\Patient 1\Session 1\dancerfemale.ASF
:FULLY-SPECIFIED
:DEGREES
1779
root 0.625205 14.199 0.205657 -511.022 -798.997 -958.193
lowerback -3.16505 -2.80592 -3.27233
upperback -2.98875 -4.08873 -7.96507
thorax -1.69673 -2.23265 -6.51869
lowerneck 25.5326 -2.63471 -18.2356
upperneck 2.46825 -9.11779 12.0194
head -1.82399 -5.65562 7.44081
rclavicle -4.11484e-014 -6.70898e-014
rhumerus -8.11447 -5.12842 -6.95808
rradius 109.023
rwrist -77.9203
rhand 43.1868 386.034
rfingers 7.12502
rthumb 64.9784 -701.179
lclavicle -4.11484e-014 -6.70898e-014
lhumerus 22.298 -49.9739 74.7479
lradius 82.6071
lwrist 40.3099
lhand 61.9037 31.4627
lfingers 7.12502
lthumb 74.9037 -727.85
rfemur -9.41267 -15.4405 21.7764
rtibia 60.864
rfoot -9.06483 -28.568
rtoes -25.5017
lfemur -13.9541 4.60038 -23.3758
ltibia 30.8135
lfoot 12.8691 2.49258
ltoes -17.0046
1780
root 0.479587 14.2938 0.257501 -514.92 -798.378 -953.5
lowerback -3.16873 -3.11916 -3.0733
upperback -2.93563 -4.50479 -7.92725
thorax -1.689 -2.44416 -6.59714
lowerneck 25.39 -2.7739 -18.519
upperneck 1.42609 -9.21043 12.7745
head -2.07087 -5.67849 7.76244
rclavicle 6.95746e-015 -7.25564e-015
rhumerus -8.17 -5.4924 -7.52321
rradius 108.947
rwrist -77.8658
rhand 43.3747 385.948
rfingers 7.12502
rthumb 65.1266 -701.017
lclavicle 6.95746e-015 -7.25564e-015
lhumerus 22.8005 -49.6613 74.1005
lradius 82.9098
lwrist 39.7509
lhand 62.1235 31.2954
lfingers 7.12502
lthumb 74.9239 -728.829
rfemur -9.15175 -14.5482 22.0205
rtibia 60.0521
rfoot -8.97675 -28.2894
rtoes -25.2551
lfemur -14.1752 4.66641 -23.066
ltibia 31.0398
lfoot 12.3375 2.73097
ltoes -16.9513
1781
root 0.342988 14.3834 0.30536 -519.068 -797.789 -948.45
lowerback -3.10319 -3.38689 -2.70143
upperback -2.86101 -4.86593 -7.8955
thorax -1.70929 -2.63093 -6.77477
lowerneck 25.0419 -2.95595 -18.7417
upperneck 0.540794 -9.30575 13.6579
head -2.2374 -5.71424 8.10723
rclavicle -1.10822e-014 -9.78021e-014
rhumerus -8.51325 -5.9691 -7.96811
rradius 108.97
rwrist -77.8757
rhand 43.6503 385.666
rfingers 7.12502
rthumb 65.3431 -700.929
lclavicle -1.10822e-014 -9.78021e-014
lhumerus 23.3811 -49.5995 73.3245
lradius 83.2258
lwrist 39.414
lhand 61.3247 30.6505
lfingers 7.12502
lthumb 74.8356 -726.536
rfemur -9.09077 -13.692 22.5425
rtibia 59.2434
rfoot -8.75115 -28.071
rtoes -25.456
lfemur -14.5675 4.73848 -22.5491
ltibia 31.3185
lfoot 11.7689 3.10284
ltoes -16.3032
1782
root 0.203372 14.4701 0.34952 -521.592 -797.091 -945.073
lowerback -2.17558 -3.89362 -2.22314
upperback -3.64234 -5.73048 -8.07524
thorax -3.20512 -3.11527 -7.13766
lowerneck 24.9365 -2.62299 -19.1788
upperneck 0.722653 -8.99338 14.3357
head -2.1814 -5.61538 8.38755
rclavicle 1.3244e-014 7.62836e-014
rhumerus -8.72862 -5.00425 -9.05355
rradius 109.211
rwrist -77.7979
rhand 43.9151 385.514
rfingers 7.12502
rthumb 65.5501 -700.72
lclavicle 1.3244e-014 7.62836e-014
lhumerus 21.193 -49.4088 73.9955
lradius 83.6665
lwrist 39.1351
lhand 59.9226 29.642
lfingers 7.12502
lthumb 74.5837 -722.497
rfemur -8.9475 -13.0328 22.6818
rtibia 58.4304
rfoot -8.75656 -27.746
rtoes -26.44
lfemur -14.8603 4.83626 -22.3459
ltibia 31.563
lfoot 11.2115 3.5972
ltoes -14.9904
1783
root 0.0549337 14.5564 0.392533 -522.715 -796.281 -943.136
lowerback -0.62466 -4.35179 -1.57663
upperback -4.87664 -6.67203 -8.55126
thorax -5.64947 -3.70129 -7.82427
lowerneck 24.7984 -2.44237 -19.047
upperneck 1.47588 -8.82198 14.6419
head -1.96557 -5.5996 8.4418
rclavicle -4.58447e-014 -1.90336e-014
rhumerus -9.41868 -3.36666 -10.5286
rradius 109.458
rwrist -77.5457
rhand 44.2244 385.8
rfingers 7.12502
rthumb 65.7906 -700.003
lclavicle -4.58447e-014 -1.90336e-014
lhumerus 17.7373 -49.5227 75.4279
lradius 84.1031
lwrist 38.5206
lhand 59.8398 28.9122
lfingers 7.12502
lthumb 74.5651 -722.934
rfemur -8.65968 -12.501 22.4063
rtibia 57.5825
rfoot -9.0068 -27.2292
rtoes -27.7961
lfemur -15.018 4.85513 -22.4903
ltibia 31.7124
lfoot 10.6448 4.36419
ltoes -13.4445
1784
root -0.0907773 14.644 0.431589 -523.595 -795.52 -941.39
lowerback 0.0213588 -4.79407 -1.5196
upperback -5.43933 -7.42262 -8.68808
thorax -6.76388 -4.12327 -7.88556
lowerneck 24.7417 -2.54817 -18.997
upperneck 1.22199 -8.91864 15.0004
head -2.01061 -5.66064 8.56519
rclavicle -7.17613e-014 -8.17502e-014
rhumerus -9.6997 -2.77585 -11.5129
rradius 109.506
rwrist -77.3753
rhand 44.5926 385.852
rfingers 7.12502
rthumb 66.0748 -699.427
lclavicle -7.17613e-014 -8.17502e-014
lhumerus 16.0678 -49.2643 76.1767
lradius 84.4158
lwrist 37.6619
lhand 61.3684 28.5487
lfingers 7.12502
lthumb 74.8415 -728.797
rfemur -8.37966 -11.985 22.1731
rtibia 56.6658
rfoot -9.23535 -26.7948
rtoes -29.0326
lfemur -15.1861 4.75156 -22.6374
ltibia 31.746
lfoot 10.1361 5.09861
ltoes -12.2769
1785
root -0.230446 14.733 0.468048 -524.327 -794.69 -939.727
lowerback -0.117668 -5.20264 -1.96434
upperback -5.47154 -7.98446 -8.60283
thorax -6.72128 -4.37888 -7.50891
lowerneck 24.7688 -2.84378 -18.9821
upperneck 0.18136 -9.16592 15.3439
head -2.27289 -5.75171 8.71904
rclavicle -9.83984e-015 4.44532e-014
rhumerus -9.6712 -2.92316 -12.0247
rradius 109.556
rwrist -77.5085
rhand 44.6924 385.797
rfingers 7.12502
rthumb 66.1515 -699.338
lclavicle -9.83984e-015 4.44532e-014
lhumerus 16.0162 -48.8112 75.9503
lradius 84.7102
lwrist 36.9153
lhand 62.5355 28.2364
lfingers 7.12502
lthumb 74.9535 -733.416
rfemur -8.20215 -11.3864 21.9764
rtibia 55.6598
rfoot -9.32988 -26.3972
rtoes -30.2717
lfemur -15.4496 4.56172 -22.7934
ltibia 31.7739
lfoot 9.63936 5.92699
ltoes -10.9577
1786
root -0.371216 14.8222 0.503426 -525.274 -793.755 -937.904
lowerback -0.198054 -5.57052 -2.32343
upperback -5.49064 -8.49516 -8.54947
thorax -6.70098 -4.616 -7.21822
lowerneck 24.6974 -3.21502 -18.674
upperneck -0.657004 -9.44405 15.5498
head -2.4724 -5.86056 8.77132
rclavicle 1.24936e-013 8.74653e-014
rhumerus -9.74091 -3.02995 -12.4729
rradius 109.666
rwrist -77.7813
rhand 44.6571 385.909
rfingers 7.12502
rthumb 66.1244 -699.277
lclavicle 1.24936e-013 8.74653e-014
lhumerus 15.986 -48.4587 75.5363
lradius 85.0681
lwrist 36.1608
lhand 63.1469 27.9272
lfingers 7.12502
lthumb 74.977 -736
rfemur -7.95275 -10.7576 21.7982
rtibia 54.5349
rfoot -9.24207 -25.8528
rtoes -31.8067
lfemur -15.7283 4.38085 -22.8955
ltibia 31.9184
lfoot 9.08419 6.87956
ltoes -9.54066
1787
root -0.50867 14.9108 0.535958 -527.571 -792.848 -934.584
lowerback -0.235 -6.07088 -2.3006
upperback -5.69071 -9.15474 -8.17775
thorax -6.91085 -4.92775 -6.77435
lowerneck 24.6528 -3.39263 -18.5661
upperneck -1.34348 -9.55141 15.5827
head -2.65652 -5.88191 8.78821
rclavicle 1.24042e-013 -1.18277e-014
rhumerus -9.41003 -2.89895 -12.9676
rradius 109.782
rwrist -77.8143
rhand 44.7898 385.959
rfingers 7.12502
rthumb 66.2262 -699.035
lclavicle 1.24042e-013 -1.18277e-014
lhumerus 15.3601 -47.6599 75.6283
lradius 85.4542
lwrist 35.344
lhand 63.1182 27.4854
lfingers 7.12502
lthumb 74.9765 -736.334
rfemur -7.73762 -10.0372 22.2018
rtibia 53.2721
rfoot -8.97973 -25.3488
rtoes -33.3471
lfemur -16.1766 4.39732 -22.4692
ltibia 32.2044
lfoot 8.4977 7.68568
ltoes -8.37225
1788
root -0.642305 14.9991 0.567653 -530.627 -791.955 -930.222
lowerback -0.543333 -6.5401 -1.86897
upperback -5.92249 -9.7202 -7.63246
thorax -7.01362 -5.20483 -6.40834
lowerneck 24.7116 -3.38127 -19.3356
upperneck -1.91883 -9.67682 16.3614
head -2.74898 -5.96862 9.20645
rclavicle -2.45499e-014 -2.06736e-014
rhumerus -9.1971 -2.81498 -13.4018
rradius 109.95
rwrist -77.6359
rhand 44.9903 386.189
rfingers 7.12502
rthumb 66.3794 -698.51
lclavicle -2.45499e-014 -2.06736e-014
lhumerus 14.7876 -46.9209 75.9427
lradius 85.8525
lwrist 34.588
lhand 62.2223 28.0404
lfingers 7.12502
lthumb 74.932 -732.45
rfemur -7.74819 -9.22857 23.1188
rtibia 51.9334
rfoot -8.77742 -24.8718
rtoes -35.0159
lfemur -16.8907 4.21106 -21.6024
ltibia 32.6178
lfoot 7.86152 8.56104
ltoes -7.68612
1789
root -0.784522 15.0882 0.599629 -532.645 -790.953 -926.913
lowerback -1.00341 -6.96713 -1.63922
upperback -6.10667 -10.2317 -7.14284
thorax -6.94595 -5.44954 -6.02339
lowerneck 24.7536 -3.33897 -20.1886
upperneck -2.4352 -9.78636 17.1596
head -2.81618 -6.04923 9.64557
rclavicle -2.68359e-014 2.42517e-014
rhumerus -8.97853 -2.91113 -13.8288
rradius 110.021
rwrist -77.5118
rhand 45.3184 386.215
rfingers 7.12502
rthumb 66.6288 -697.993
lclavicle -2.68359e-014 2.42517e-014
lhumerus 14.2919 -46.2705 76.3924
lradius 86.2743
lwrist 33.8135
lhand 61.3983 29.8793
lfingers 7.12502
lthumb 74.8454 -727.576
rfemur -7.75382 -8.47994 23.6892
rtibia 50.5992
rfoot -8.75668 -24.2191
rtoes -36.6699
lfemur -17.5718 3.55512 -21.0049
ltibia 33.1279
lfoot 6.97588 9.19859
ltoes -8.7616
1790
root -0.927974 15.1737 0.629095 -533.537 -789.892 -924.879
lowerback -1.32455 -7.33238 -1.75436
upperback -6.26243 -10.7012 -6.82537
thorax -6.89318 -5.66625 -5.6283
lowerneck 24.9377 -3.46442 -20.5282
upperneck -3.12525 -9.98755 17.7922
head -2.96735 -6.17012 9.96576
rclavicle 1.19668e-013 8.11041e-014
rhumerus -9.00343 -3.17395 -14.2597
rradius 110.031
rwrist -77.4934
rhand 45.8221 385.902
rfingers 7.12502
rthumb 67.0079 -697.531
lclavicle 1.19668e-013 8.11041e-014
lhumerus 13.8686 -45.8641 76.7492
lradius 86.6008
lwrist 33.1135
lhand 61.0284 30.8383
lfingers 7.12502
lthumb 74.7926 -725.268
rfemur -7.67732 -7.80428 23.8291
rtibia 49.314
rfoot -8.74071 -23.4599
rtoes -37.9401
lfemur -18.1645 2.94221 -20.7487
ltibia 33.6801
lfoot 5.80319 9.24285
ltoes -10.8699
1791
root -1.06943 15.2557 0.655264 -534.231 -788.736 -923.076
lowerback -1.45734 -7.69733 -1.96419
upperback -6.52866 -11.1925 -6.43879
thorax -7.03015 -5.88502 -5.08044
lowerneck 25.0076 -3.62518 -20.6908
upperneck -3.63608 -10.1926 18.3313
head -3.05806 -6.29487 10.2135
rclavicle -6.38099e-014 -3.57812e-014
rhumerus -9.05307 -3.32133 -14.5856
rradius 110.161
rwrist -77.5068
rhand 46.3026 385.324
rfingers 7.12502
rthumb 67.3653 -697.346
lclavicle -6.38099e-014 -3.57812e-014
lhumerus 13.3038 -45.3967 77.1893
lradius 86.9139
lwrist 32.5116
lhand 60.477 31.225
lfingers 7.12502
lthumb 74.6978 -722.889
rfemur -7.60144 -7.08984 23.93
rtibia 48.0701
rfoot -8.65307 -22.6597
rtoes -39.0579
lfemur -18.728 2.53881 -20.4756
ltibia 34.2083
lfoot 4.53028 8.73964
ltoes -13.3694
1792
root -1.215 15.3355 0.677709 -535.144 -787.471 -921.061
lowerback -1.46512 -8.08612 -1.91007
upperback -6.91848 -11.7375 -6.02928
thorax -7.41799 -6.14654 -4.61795
lowerneck 24.7741 -3.72623 -20.8228
upperneck -3.62022 -10.3292 18.718
head -2.96802 -6.38672 10.3611
rclavicle -1.25234e-014 -3.61788e-014
rhumerus -9.09581 -3.18128 -15.0375
rradius 110.427
rwrist -77.4831
rhand 46.1871 384.774
rfingers 7.12502
rthumb 67.2797 -698.082
lclavicle -1.25234e-014 -3.61788e-014
lhumerus 12.4229 -44.7611 77.6999
lradius 87.3348
lwrist 31.8745
lhand 59.7724 31.8767
lfingers 7.12502
lthumb 74.5496 -719.732
rfemur -7.46892 -6.34785 24.1447
rtibia 46.8322
rfoot -8.65239 -21.8035
rtoes -40.5492
lfemur -19.2217 2.19959 -20.0565
ltibia 34.6976
lfoot 3.23084 7.69349
ltoes -16.609
1793
root -1.36288 15.4108 0.69804 -535.891 -786.165 -919.258
lowerback -1.45909 -8.53473 -1.93359
upperback -7.28568 -12.3543 -5.55672
thorax -7.7573 -6.43208 -4.04384
lowerneck 24.4965 -3.69578 -21.208
upperneck -3.55583 -10.3542 19.1607
head -2.86366 -6.42165 10.5632
rclavicle -8.50798e-014 -7.07673e-014
rhumerus -8.90491 -3.03277 -15.5974
rradius 110.684
rwrist -77.3186
rhand 46.1334 384.924
rfingers 7.12502
rthumb 67.2399 -698.017
lclavicle -8.50798e-014 -7.07673e-014
lhumerus 11.4159 -43.8286 78.3017
lradius 87.7073
lwrist 31.0677
lhand 59.855 31.8723
lfingers 7.12502
lthumb 74.5686 -720.028
rfemur -7.27093 -5.63551 24.3047
rtibia 45.5685
rfoot -8.69176 -20.9566
rtoes -42.2191
lfemur -19.6465 1.7748 -19.6769
ltibia 35.1241
lfoot 1.71871 6.10133
ltoes -20.0129
